# xmcd CD database file
#
# Track frame offsets:
#	183
#	20790
#	30363
#	65370
#	89933
#	109610
#	132073
#	143508
#	169403
#	185568
#	206228
#	225670
#
# Disc length: 3313 seconds
#
# Revision: 0
# Processed by: cddbd v1.4PL0 Copyright (c) Steve Scherf et al.
# Submitted via: CDex 1.50
#
DISCID=a90cef0c
DTITLE=Padnoise - Yumedono
DYEAR=1991
DGENRE=New Age
TTITLE0=Annalogia
TTITLE1=Mime
TTITLE2=Yumedono
TTITLE3=Le Char Du Soleil
TTITLE4=Milthone
TTITLE5=Delire
TTITLE6=Nino
TTITLE7=Aura
TTITLE8=Annalogia (Partie 2)
TTITLE9=Elim
TTITLE10=Roman
TTITLE11=L'Envol
EXTD=YEAR: 1991
EXTT0=
EXTT1=
EXTT2=
EXTT3=
EXTT4=
EXTT5=
EXTT6=
EXTT7=
EXTT8=
EXTT9=
EXTT10=
EXTT11=
PLAYORDER=
